<svg id="Layer_1" data-name="Layer 1" xmlns="http://www.w3.org/2000/svg" xmlns:xlink="http://www.w3.org/1999/xlink" viewBox="0 0 933 236.72"><defs><style>.cls-1{fill:none;}.cls-2{fill:#f19720;}.cls-3{fill:#669cc3;}.cls-4,.cls-5{fill:#ffcf06;}.cls-4{opacity:0.26;isolation:isolate;}.cls-6{fill:url(#linear-gradient);}.cls-7{clip-path:url(#clip-path);}.cls-8{clip-path:url(#clip-path-2);}</style><linearGradient id="linear-gradient" x1="232.89" y1="-1061.22" x2="108.44" y2="-1216.78" gradientTransform="matrix(1, 0, 0, -1, 0, -1006.26)" gradientUnits="userSpaceOnUse"><stop offset="0" stop-color="#82c0a8"/><stop offset="1" stop-color="#6ea9d3"/></linearGradient><clipPath id="clip-path"><rect class="cls-1" x="-1687" y="180.87" width="714" height="319.6"/></clipPath><clipPath id="clip-path-2"><rect class="cls-1" x="-932" y="180.87" width="487" height="217.99"/></clipPath></defs><title>Codehana_1_horizontal</title><path class="cls-2" d="M399,176.64H382.87a19.74,19.74,0,0,1-21.5-21.59V108.94A21.47,21.47,0,0,1,367,93.05a21.47,21.47,0,0,1,15.88-5.62H399a21.53,21.53,0,0,1,15.82,5.62,21.33,21.33,0,0,1,5.76,15.88v6.66a2.22,2.22,0,0,1-2.51,2.51h-8.65q-2.36,0-2.36-2.51v-6.11q0-10.26-10-10.26H384.83q-10,0-10,10.26v45.08q0,10.26,10,10.26H396.9q10,0,10-10.26v-6.11q0-2.51,2.36-2.51h8.65a2.22,2.22,0,0,1,2.51,2.51v6.66A19.84,19.84,0,0,1,399,176.64Z"/><path class="cls-2" d="M468.87,176.64h-16a19.74,19.74,0,0,1-21.5-21.59V108.94A21.47,21.47,0,0,1,437,93.05a21.47,21.47,0,0,1,15.88-5.62H469a21.73,21.73,0,0,1,16,5.62,21.33,21.33,0,0,1,5.76,15.88v46.12A19.74,19.74,0,0,1,469,176.55Zm-14.15-11.79H466.8q10.12,0,10.12-10.26V109.51q0-10.26-10.12-10.26H454.72q-10,0-10,10.26v45.08Q444.75,164.85,454.72,164.85Z"/><path class="cls-2" d="M507,174.28V89.8a2.08,2.08,0,0,1,2.36-2.36h34.13a21.79,21.79,0,0,1,16,5.62,21.18,21.18,0,0,1,5.76,15.88v46.12a21.21,21.21,0,0,1-5.76,15.82,21.62,21.62,0,0,1-15.88,5.76H509.4a2.08,2.08,0,0,1-2.36-2.36Zm15-9.42h19.57q10,0,10-10.26V109.51q0-10.26-10-10.26H522.05c-1,0-1.53.46-1.53,1.38v62.72a1.35,1.35,0,0,0,1.53,1.5Z"/><path class="cls-2" d="M628.69,176.64H584.16a2.08,2.08,0,0,1-2.36-2.36V89.8a2.08,2.08,0,0,1,2.36-2.36h44.53q2.22,0,2.22,2.36v7.06q0,2.36-2.22,2.36H597c-1.1,0-1.67.46-1.67,1.38V124q0,1.38,1.67,1.38h26.78q2.51,0,2.51,2.36v7.06q0,2.36-2.51,2.36H597c-1.1,0-1.67.46-1.67,1.38v24.7c0,1,.55,1.53,1.67,1.53h31.7q2.22,0,2.22,2.36v7.06Q630.77,176.64,628.69,176.64Z"/><path class="cls-2" d="M657.26,176.64h-8.65a2.08,2.08,0,0,1-2.36-2.36V89.8a2.08,2.08,0,0,1,2.36-2.36h8.65a2.08,2.08,0,0,1,2.36,2.36v34.59q0,1.38,1.67,1.38h29.28a1.24,1.24,0,0,0,1.38-1.38V89.8a2.08,2.08,0,0,1,2.36-2.36h8.88a2.08,2.08,0,0,1,2.36,2.36v84.48a2.08,2.08,0,0,1-2.36,2.36h-8.88a2.08,2.08,0,0,1-2.36-2.36V139.2a1.24,1.24,0,0,0-1.38-1.38H661.29c-1.1,0-1.67.46-1.67,1.38v35.11a2.08,2.08,0,0,1-2.36,2.33Z"/><path class="cls-2" d="M725.65,176.64h-10q-1.93,0-1.38-2.36L738.42,89.8a3.11,3.11,0,0,1,3.34-2.36h13.75a2.88,2.88,0,0,1,3.34,2.34v0L783,174.28q.55,2.36-1.53,2.36h-9.86a2.42,2.42,0,0,1-1.73-.49,3.75,3.75,0,0,1-.75-1.87l-5.27-18H733.43l-5.27,18Q727.61,176.64,725.65,176.64Zm22.77-76L736.2,145.05h25.08L749,100.66Z"/><path class="cls-2" d="M805.58,176.64h-8.65a2.08,2.08,0,0,1-2.36-2.36V89.8a2.08,2.08,0,0,1,2.36-2.36h7.78A3.17,3.17,0,0,1,807.77,89l33.58,60.35H842V89.8a2.08,2.08,0,0,1,2.36-2.36H853a2.08,2.08,0,0,1,2.36,2.36v84.48a2.08,2.08,0,0,1-2.36,2.36H845.5a4.12,4.12,0,0,1-3.6-2.22L808.6,114.76h-.55v59.52a2.08,2.08,0,0,1-2.48,2.36Z"/><path class="cls-2" d="M875.36,176.64h-10q-1.93,0-1.38-2.36L888.1,89.8a3.11,3.11,0,0,1,3.34-2.36h14a2.88,2.88,0,0,1,3.34,2.34v0l24.15,84.48q.55,2.36-1.53,2.36H921.5a2.42,2.42,0,0,1-1.73-.49,3.75,3.75,0,0,1-.75-1.87l-5.27-18H883.11l-5.27,18Q877.29,176.64,875.36,176.64Zm22.74-76-12.22,44.39H911l-12.34-44.39Z"/><path class="cls-3" d="M148,231.15l1.33.39h-.17Z"/><path class="cls-3" d="M158.44,233.89c1.48.32,3,.62,4.48.9l-1.41-.26-1.63-.32Z"/><path class="cls-3" d="M163.18,234.82l1.87.34-.71-.11Z"/><path class="cls-3" d="M172.4,236.08c1,.11,2.12.21,3.19.28h-1.16Z"/><path class="cls-3" d="M175.66,236.4c1.07,0,2.14.15,3.2.21h-1.59Z"/><path class="cls-3" d="M188.87,236.72h2.06C190.26,236.7,189.57,236.7,188.87,236.72Z"/><path class="cls-3" d="M200.08,235.91h-1A9,9,0,0,0,200.08,235.91Z"/><path class="cls-3" d="M59.8,120.61a125.14,125.14,0,0,0,13,46.85C55.39,143.39,22.49,137.28,0,144.12A126.49,126.49,0,0,1,59.8,120.61Z"/><path class="cls-4" d="M276.28,85.43a60.13,60.13,0,0,0-13.66-1.56c-23.24,0-42.59,9.37-61.32,18.35C181.06,112,160.07,122,132.28,122a49.38,49.38,0,0,1-36.94-15.87A60.64,60.64,0,0,1,84.78,90.36,96,96,0,0,1,274.85,78Z"/><path class="cls-5" d="M237.45,87.44c-12.8,3.52-24.59,9.22-36.13,14.77-20.24,9.74-41.23,19.85-69,19.85q-2.3,0-4.53-.21A57.87,57.87,0,1,1,237.45,87.44Z"/><path class="cls-6" d="M299.49,120c-1.07-1.69.49-4.85,3.65-7.83-9.86-10.81-23.72-18.74-40.53-18.74-44.77,0-73.61,38.19-130.31,38.19a42.52,42.52,0,0,1-4.91-.19,26.67,26.67,0,0,1-3.9-.41,8.89,8.89,0,0,1-1.87-.3c-.6-.13-1-.15-1.48-.26l-.66-.13c-1.14-.22-2.27-.49-3.37-.81h0c-1.12-.3-2.21-.64-3.3-1-.52-.17-1.07-.36-1.59-.56l-1.09-.41q-1-.39-2-.84c-.43-.17-.84-.36-1.26-.56a54.08,54.08,0,0,1-6.88-3.75C78.54,108.65,68.16,82.13,69.52,61.35a125.39,125.39,0,0,0-10.1,49.49c0,3.28.13,6.54.37,9.76a125.14,125.14,0,0,0,13,46.85h0a121.92,121.92,0,0,0,6.24,11l.22.36c.54.86,1.09,1.71,1.67,2.53S82,183,82.64,183.81c1.39,1.87,2.83,3.86,4.31,5.62l1.56,1.87c.54.64,1.07,1.27,1.61,1.87l.47.54c1,1.16,2.06,2.32,3.13,3.45S95.59,199,96.47,200c.54.56,1.09,1.11,1.65,1.63l2.4,2.25c1.12,1,2.27,2,3.41,3,.75.64,1.5,1.27,2.27,1.87,1.31,1.07,2.64,2.1,4,3.09.69.54,1.41,1,2.14,1.56l2.38,1.67c.51.36,1,.69,1.56,1s.81.54,1.22.79a125.67,125.67,0,0,0,13.27,7.5l3.5,1.61h.21l2.9,1.26A102.42,102.42,0,0,0,148,231c.9.26,1.78.54,2.68.79,2.57.73,5.13,1.39,7.76,1.87,1.48.32,3,.62,4.48.9h.26l1.87.34c1.5.24,3,.45,4.5.64l2.87.58c1,.11,2.12.21,3.19.28s2.14.15,3.2.21l2.64.11h9.86l2.51-.13c1.39,0,2.75-.22,4.12-.36a14.32,14.32,0,0,0,2-.22A125.93,125.93,0,0,0,310.47,122.87C304.18,123.64,300.51,121.62,299.49,120Zm-98.12,43.87A20.44,20.44,0,0,0,200,176.73a106.81,106.81,0,0,0-24.49-6.24c-16.87-2.1-32.16,1.18-40.18,13a35.1,35.1,0,0,1,2-8.21,39.18,39.18,0,0,1,22.49-22.11c12.91-5.32,29.27-5.62,45.14.41,1.48.56,4.37,1.87,4.37,1.87A21.08,21.08,0,0,0,201.37,163.88Zm56.37-41.66a6.13,6.13,0,1,1,6.13-6.13v.06A6.13,6.13,0,0,1,257.74,122.22Z"/><g class="cls-7"><image width="1680" height="1050" transform="translate(-1807.7 2.37) scale(1.7)" xlink:href="../../Screen Shot 2020-09-10 at 11.02.47 AM.png"/></g><g class="cls-8"><image width="1680" height="1050" transform="translate(-1014.33 59.12) scale(1.16)" xlink:href="../../Screen Shot 2020-09-10 at 11.02.52 AM.png"/></g></svg>